# Blender v2.90.0 OBJ File: ''
# www.blender.org
mtllib inverse_triangle.mtl
o Cube.001
v 0.500000 0.500000 -0.500000
v 0.500000 -0.500000 0.500000
v 0.500000 0.500000 0.500000
v 0.500000 -0.500000 -0.500000
v 0.000000 0.500000 0.500000
v 0.000000 0.500000 -0.500000
v -0.500000 0.500000 0.500000
v -0.500000 -0.500000 -0.500000
v -0.500000 0.500000 -0.500000
v -0.500000 -0.500000 0.500000
vt 0.402665 0.042006
vt 0.651414 0.045758
vt 0.625000 0.375000
vt 0.375000 0.375000
vt 0.250000 0.500000
vt 0.375000 0.500000
vt 0.375000 0.750000
vt 0.250000 0.750000
vt 0.687500 0.437500
vt 0.676679 0.823321
vt 0.625000 0.875000
vt 0.375000 0.875000
vt 0.375000 0.375000
vt 0.625000 0.375000
vt 0.651414 0.045758
vt 0.402665 0.042006
vt 0.333333 0.750000
vt 0.208333 0.750000
vt 0.208333 0.500000
vt 0.333333 0.500000
vt 0.455448 0.769552
vt 0.636455 0.813545
vt 0.645833 0.445833
vt 0.458333 0.483333
vt 0.375000 0.458333
vt 0.687500 0.520833
vt 0.375000 0.333333
vt 0.375000 0.916667
vt 0.625000 0.791667
vt 0.375000 0.791667
vn 1.0000 -0.0000 0.0000
vn 0.0000 1.0000 0.0000
vn -0.8944 -0.4472 0.0000
vn 0.0000 0.0000 -1.0000
vn -0.0000 0.0000 1.0000
vn -1.0000 -0.0000 0.0000
vn 0.8944 -0.4472 0.0000
usemtl Material
s off
f 3/1/1 2/2/1 4/3/1 1/4/1
f 1/5/2 6/6/2 5/7/2 3/8/2
f 6/6/3 4/9/3 2/10/3 5/7/3
f 1/4/4 4/9/4 6/6/4
f 5/7/5 2/11/5 3/12/5
f 9/13/6 8/14/6 10/15/6 7/16/6
f 7/17/2 5/18/2 6/19/2 9/20/2
f 5/21/7 10/22/7 8/23/7 6/24/7
f 7/25/5 10/26/5 5/27/5
f 6/28/4 8/29/4 9/30/4
