# Blender v2.90.0 OBJ File: ''
# www.blender.org
mtllib triangle.mtl
o Cube
v 0.500000 -0.500000 -0.500000
v 0.500000 -0.500000 0.500000
v -0.500000 -0.500000 -0.500000
v -0.500000 -0.500000 0.500000
v 0.000000 -0.500000 -0.500000
v 0.000000 0.500000 0.500000
v 0.000000 -0.500000 0.500000
v 0.000000 0.500000 -0.500000
vt 0.375000 0.875000
vt 0.625000 0.875000
vt 0.375000 1.000000
vt 0.375000 0.000000
vt 0.651414 0.045758
vt 0.625000 0.375000
vt 0.375000 0.250000
vt 0.250000 0.500000
vt 0.375000 0.500000
vt 0.375000 0.750000
vt 0.250000 0.750000
vt 0.687500 0.437500
vt 0.676679 0.823321
vt 0.375000 0.375000
vt 0.125000 0.500000
vt 0.125000 0.750000
vn 0.0000 0.0000 1.0000
vn -0.8944 0.4472 0.0000
vn 0.0000 -1.0000 0.0000
vn 0.8944 0.4472 0.0000
vn 0.0000 0.0000 -1.0000
usemtl Material
s off
f 7/1/1 6/2/1 4/3/1
f 4/4/2 6/5/2 8/6/2 3/7/2
f 5/8/3 1/9/3 2/10/3 7/11/3
f 1/9/4 8/12/4 6/13/4 2/10/4
f 5/14/5 8/12/5 1/9/5
f 3/7/5 8/6/5 5/14/5
f 3/15/3 5/8/3 7/11/3 4/16/3
f 2/10/1 6/2/1 7/1/1
